# xmcd
#
# Track frame offsets: 
#        150
#        16030
#        32954
#        52937
#        75577
#        95558
#        118677
#        133939
#        154540
#        174501
#        194681
#        215907
#
# Disc length: 3101 seconds
#
# Revision: 0
# Processed by: cddbd v1.5.2PL0 Copyright (c) Steve Scherf et al.
# Submitted via: ExactAudioCopy v0.99pb4
#
DISCID=a20c1b0c
DTITLE=Ben E. King - I've Been Around
DYEAR=2006
DGENRE=Soul
TTITLE0=Here Is My Heart's Desire
TTITLE1=Rhythm Of Love
TTITLE2=Show Me
TTITLE3=I've Been Around
TTITLE4=Just Remember
TTITLE5=You'll Never Know Who's Watching
TTITLE6=Please Stay
TTITLE7=Comparing Her To You
TTITLE8=Fly Away
TTITLE9=I'm Gonna Be The One
TTITLE10=Lady, I Love You So
TTITLE11=I Bet You That
EXTD=
EXTT0=
EXTT1=
EXTT2=
EXTT3=
EXTT4=
EXTT5=
EXTT6=
EXTT7=
EXTT8=
EXTT9=
EXTT10=
EXTT11=
PLAYORDER=
